<svg xmlns="http://www.w3.org/2000/svg">
<rect fill="ghostwhite" height="20" stroke="black" stroke-width="1" width="20" x="0" y="0"/>
<rect fill="dimgray" height="20" stroke="black" stroke-width="1" width="20" x="20" y="0"/>
<rect fill="dimgray" height="20" stroke="black" stroke-width="1" width="20" x="40" y="0"/>
<rect fill="dimgray" height="20" stroke="black" stroke-width="1" width="20" x="60" y="0"/>
<rect fill="ghostwhite" height="20" stroke="black" stroke-width="1" width="20" x="80" y="0"/>
<rect fill="ghostwhite" height="20" stroke="black" stroke-width="1" width="20" x="100" y="0"/>
<rect fill="ghostwhite" height="20" stroke="black" stroke-width="1" width="20" x="120" y="0"/>
<rect fill="ghostwhite" height="20" stroke="black" stroke-width="1" width="20" x="140" y="0"/>
<rect fill="ghostwhite" height="20" stroke="black" stroke-width="1" width="20" x="160" y="0"/>
<rect fill="dimgray" height="20" stroke="black" stroke-width="1" width="20" x="180" y="0"/>
<rect fill="ghostwhite" height="20" stroke="black" stroke-width="1" width="20" x="200" y="0"/>
<rect fill="dimgray" height="20" stroke="black" stroke-width="1" width="20" x="220" y="0"/>
<rect fill="dimgray" height="20" stroke="black" stroke-width="1" width="20" x="240" y="0"/>
<rect fill="ghostwhite" height="20" stroke="black" stroke-width="1" width="20" x="260" y="0"/>
<rect fill="dimgray" height="20" stroke="black" stroke-width="1" width="20" x="280" y="0"/>
<rect fill="ghostwhite" height="20" stroke="black" stroke-width="1" width="20" x="300" y="0"/>
<rect fill="ghostwhite" height="20" stroke="black" stroke-width="1" width="20" x="320" y="0"/>
<rect fill="ghostwhite" height="20" stroke="black" stroke-width="1" width="20" x="340" y="0"/>
<rect fill="ghostwhite" height="20" stroke="black" stroke-width="1" width="20" x="360" y="0"/>
<rect fill="dimgray" height="20" stroke="black" stroke-width="1" width="20" x="380" y="0"/>
<rect fill="ghostwhite" height="20" stroke="black" stroke-width="1" width="20" x="400" y="0"/>
<rect fill="ghostwhite" height="20" stroke="black" stroke-width="1" width="20" x="420" y="0"/>
<rect fill="ghostwhite" height="20" stroke="black" stroke-width="1" width="20" x="440" y="0"/>
<rect fill="ghostwhite" height="20" stroke="black" stroke-width="1" width="20" x="460" y="0"/>
<rect fill="dimgray" height="20" stroke="black" stroke-width="1" width="20" x="480" y="0"/>
<rect fill="ghostwhite" height="20" stroke="black" stroke-width="1" width="20" x="0" y="20"/>
<rect fill="dimgray" height="20" stroke="black" stroke-width="1" width="20" x="20" y="20"/>
<rect fill="dimgray" height="20" stroke="black" stroke-width="1" width="20" x="40" y="20"/>
<rect fill="dimgray" height="20" stroke="black" stroke-width="1" width="20" x="60" y="20"/>
<rect fill="ghostwhite" height="20" stroke="black" stroke-width="1" width="20" x="80" y="20"/>
<rect fill="ghostwhite" height="20" stroke="black" stroke-width="1" width="20" x="100" y="20"/>
<rect fill="dimgray" height="20" stroke="black" stroke-width="1" width="20" x="120" y="20"/>
<rect fill="dimgray" height="20" stroke="black" stroke-width="1" width="20" x="140" y="20"/>
<rect fill="dimgray" height="20" stroke="black" stroke-width="1" width="20" x="160" y="20"/>
<rect fill="dimgray" height="20" stroke="black" stroke-width="1" width="20" x="180" y="20"/>
<rect fill="ghostwhite" height="20" stroke="black" stroke-width="1" width="20" x="200" y="20"/>
<rect fill="dimgray" height="20" stroke="black" stroke-width="1" width="20" x="220" y="20"/>
<rect fill="dimgray" height="20" stroke="black" stroke-width="1" width="20" x="240" y="20"/>
<rect fill="ghostwhite" height="20" stroke="black" stroke-width="1" width="20" x="260" y="20"/>
<rect fill="dimgray" height="20" stroke="black" stroke-width="1" width="20" x="280" y="20"/>
<rect fill="ghostwhite" height="20" stroke="black" stroke-width="1" width="20" x="300" y="20"/>
<rect fill="dimgray" height="20" stroke="black" stroke-width="1" width="20" x="320" y="20"/>
<rect fill="dimgray" height="20" stroke="black" stroke-width="1" width="20" x="340" y="20"/>
<rect fill="dimgray" height="20" stroke="black" stroke-width="1" width="20" x="360" y="20"/>
<rect fill="dimgray" height="20" stroke="black" stroke-width="1" width="20" x="380" y="20"/>
<rect fill="ghostwhite" height="20" stroke="black" stroke-width="1" width="20" x="400" y="20"/>
<rect fill="dimgray" height="20" stroke="black" stroke-width="1" width="20" x="420" y="20"/>
<rect fill="dimgray" height="20" stroke="black" stroke-width="1" width="20" x="440" y="20"/>
<rect fill="dimgray" height="20" stroke="black" stroke-width="1" width="20" x="460" y="20"/>
<rect fill="dimgray" height="20" stroke="black" stroke-width="1" width="20" x="480" y="20"/>
<rect fill="dimgray" height="20" stroke="black" stroke-width="1" width="20" x="0" y="40"/>
<rect fill="ghostwhite" height="20" stroke="black" stroke-width="1" width="20" x="20" y="40"/>
<rect fill="dimgray" height="20" stroke="black" stroke-width="1" width="20" x="40" y="40"/>
<rect fill="ghostwhite" height="20" stroke="black" stroke-width="1" width="20" x="60" y="40"/>
<rect fill="dimgray" height="20" stroke="black" stroke-width="1" width="20" x="80" y="40"/>
<rect fill="ghostwhite" height="20" stroke="black" stroke-width="1" width="20" x="100" y="40"/>
<rect fill="ghostwhite" height="20" stroke="black" stroke-width="1" width="20" x="120" y="40"/>
<rect fill="ghostwhite" height="20" stroke="black" stroke-width="1" width="20" x="140" y="40"/>
<rect fill="dimgray" height="20" stroke="black" stroke-width="1" width="20" x="160" y="40"/>
<rect fill="dimgray" height="20" stroke="black" stroke-width="1" width="20" x="180" y="40"/>
<rect fill="ghostwhite" height="20" stroke="black" stroke-width="1" width="20" x="200" y="40"/>
<rect fill="ghostwhite" height="20" stroke="black" stroke-width="1" width="20" x="220" y="40"/>
<rect fill="ghostwhite" height="20" stroke="black" stroke-width="1" width="20" x="240" y="40"/>
<rect fill="ghostwhite" height="20" stroke="black" stroke-width="1" width="20" x="260" y="40"/>
<rect fill="dimgray" height="20" stroke="black" stroke-width="1" width="20" x="280" y="40"/>
<rect fill="ghostwhite" height="20" stroke="black" stroke-width="1" width="20" x="300" y="40"/>
<rect fill="ghostwhite" height="20" stroke="black" stroke-width="1" width="20" x="320" y="40"/>
<rect fill="ghostwhite" height="20" stroke="black" stroke-width="1" width="20" x="340" y="40"/>
<rect fill="dimgray" height="20" stroke="black" stroke-width="1" width="20" x="360" y="40"/>
<rect fill="dimgray" height="20" stroke="black" stroke-width="1" width="20" x="380" y="40"/>
<rect fill="ghostwhite" height="20" stroke="black" stroke-width="1" width="20" x="400" y="40"/>
<rect fill="ghostwhite" height="20" stroke="black" stroke-width="1" width="20" x="420" y="40"/>
<rect fill="ghostwhite" height="20" stroke="black" stroke-width="1" width="20" x="440" y="40"/>
<rect fill="dimgray" height="20" stroke="black" stroke-width="1" width="20" x="460" y="40"/>
<rect fill="dimgray" height="20" stroke="black" stroke-width="1" width="20" x="480" y="40"/>
<rect fill="dimgray" height="20" stroke="black" stroke-width="1" width="20" x="0" y="60"/>
<rect fill="dimgray" height="20" stroke="black" stroke-width="1" width="20" x="20" y="60"/>
<rect fill="ghostwhite" height="20" stroke="black" stroke-width="1" width="20" x="40" y="60"/>
<rect fill="dimgray" height="20" stroke="black" stroke-width="1" width="20" x="60" y="60"/>
<rect fill="dimgray" height="20" stroke="black" stroke-width="1" width="20" x="80" y="60"/>
<rect fill="ghostwhite" height="20" stroke="black" stroke-width="1" width="20" x="100" y="60"/>
<rect fill="dimgray" height="20" stroke="black" stroke-width="1" width="20" x="120" y="60"/>
<rect fill="dimgray" height="20" stroke="black" stroke-width="1" width="20" x="140" y="60"/>
<rect fill="dimgray" height="20" stroke="black" stroke-width="1" width="20" x="160" y="60"/>
<rect fill="dimgray" height="20" stroke="black" stroke-width="1" width="20" x="180" y="60"/>
<rect fill="ghostwhite" height="20" stroke="black" stroke-width="1" width="20" x="200" y="60"/>
<rect fill="dimgray" height="20" stroke="black" stroke-width="1" width="20" x="220" y="60"/>
<rect fill="dimgray" height="20" stroke="black" stroke-width="1" width="20" x="240" y="60"/>
<rect fill="ghostwhite" height="20" stroke="black" stroke-width="1" width="20" x="260" y="60"/>
<rect fill="dimgray" height="20" stroke="black" stroke-width="1" width="20" x="280" y="60"/>
<rect fill="ghostwhite" height="20" stroke="black" stroke-width="1" width="20" x="300" y="60"/>
<rect fill="dimgray" height="20" stroke="black" stroke-width="1" width="20" x="320" y="60"/>
<rect fill="dimgray" height="20" stroke="black" stroke-width="1" width="20" x="340" y="60"/>
<rect fill="dimgray" height="20" stroke="black" stroke-width="1" width="20" x="360" y="60"/>
<rect fill="dimgray" height="20" stroke="black" stroke-width="1" width="20" x="380" y="60"/>
<rect fill="ghostwhite" height="20" stroke="black" stroke-width="1" width="20" x="400" y="60"/>
<rect fill="dimgray" height="20" stroke="black" stroke-width="1" width="20" x="420" y="60"/>
<rect fill="dimgray" height="20" stroke="black" stroke-width="1" width="20" x="440" y="60"/>
<rect fill="dimgray" height="20" stroke="black" stroke-width="1" width="20" x="460" y="60"/>
<rect fill="dimgray" height="20" stroke="black" stroke-width="1" width="20" x="480" y="60"/>
<rect fill="dimgray" height="20" stroke="black" stroke-width="1" width="20" x="0" y="80"/>
<rect fill="dimgray" height="20" stroke="black" stroke-width="1" width="20" x="20" y="80"/>
<rect fill="ghostwhite" height="20" stroke="black" stroke-width="1" width="20" x="40" y="80"/>
<rect fill="dimgray" height="20" stroke="black" stroke-width="1" width="20" x="60" y="80"/>
<rect fill="dimgray" height="20" stroke="black" stroke-width="1" width="20" x="80" y="80"/>
<rect fill="ghostwhite" height="20" stroke="black" stroke-width="1" width="20" x="100" y="80"/>
<rect fill="dimgray" height="20" stroke="black" stroke-width="1" width="20" x="120" y="80"/>
<rect fill="dimgray" height="20" stroke="black" stroke-width="1" width="20" x="140" y="80"/>
<rect fill="dimgray" height="20" stroke="black" stroke-width="1" width="20" x="160" y="80"/>
<rect fill="dimgray" height="20" stroke="black" stroke-width="1" width="20" x="180" y="80"/>
<rect fill="ghostwhite" height="20" stroke="black" stroke-width="1" width="20" x="200" y="80"/>
<rect fill="dimgray" height="20" stroke="black" stroke-width="1" width="20" x="220" y="80"/>
<rect fill="dimgray" height="20" stroke="black" stroke-width="1" width="20" x="240" y="80"/>
<rect fill="ghostwhite" height="20" stroke="black" stroke-width="1" width="20" x="260" y="80"/>
<rect fill="dimgray" height="20" stroke="black" stroke-width="1" width="20" x="280" y="80"/>
<rect fill="ghostwhite" height="20" stroke="black" stroke-width="1" width="20" x="300" y="80"/>
<rect fill="dimgray" height="20" stroke="black" stroke-width="1" width="20" x="320" y="80"/>
<rect fill="dimgray" height="20" stroke="black" stroke-width="1" width="20" x="340" y="80"/>
<rect fill="dimgray" height="20" stroke="black" stroke-width="1" width="20" x="360" y="80"/>
<rect fill="dimgray" height="20" stroke="black" stroke-width="1" width="20" x="380" y="80"/>
<rect fill="ghostwhite" height="20" stroke="black" stroke-width="1" width="20" x="400" y="80"/>
<rect fill="dimgray" height="20" stroke="black" stroke-width="1" width="20" x="420" y="80"/>
<rect fill="dimgray" height="20" stroke="black" stroke-width="1" width="20" x="440" y="80"/>
<rect fill="dimgray" height="20" stroke="black" stroke-width="1" width="20" x="460" y="80"/>
<rect fill="dimgray" height="20" stroke="black" stroke-width="1" width="20" x="480" y="80"/>
<rect fill="dimgray" height="20" stroke="black" stroke-width="1" width="20" x="0" y="100"/>
<rect fill="dimgray" height="20" stroke="black" stroke-width="1" width="20" x="20" y="100"/>
<rect fill="ghostwhite" height="20" stroke="black" stroke-width="1" width="20" x="40" y="100"/>
<rect fill="dimgray" height="20" stroke="black" stroke-width="1" width="20" x="60" y="100"/>
<rect fill="dimgray" height="20" stroke="black" stroke-width="1" width="20" x="80" y="100"/>
<rect fill="ghostwhite" height="20" stroke="black" stroke-width="1" width="20" x="100" y="100"/>
<rect fill="ghostwhite" height="20" stroke="black" stroke-width="1" width="20" x="120" y="100"/>
<rect fill="ghostwhite" height="20" stroke="black" stroke-width="1" width="20" x="140" y="100"/>
<rect fill="ghostwhite" height="20" stroke="black" stroke-width="1" width="20" x="160" y="100"/>
<rect fill="dimgray" height="20" stroke="black" stroke-width="1" width="20" x="180" y="100"/>
<rect fill="ghostwhite" height="20" stroke="black" stroke-width="1" width="20" x="200" y="100"/>
<rect fill="dimgray" height="20" stroke="black" stroke-width="1" width="20" x="220" y="100"/>
<rect fill="dimgray" height="20" stroke="black" stroke-width="1" width="20" x="240" y="100"/>
<rect fill="ghostwhite" height="20" stroke="black" stroke-width="1" width="20" x="260" y="100"/>
<rect fill="dimgray" height="20" stroke="black" stroke-width="1" width="20" x="280" y="100"/>
<rect fill="ghostwhite" height="20" stroke="black" stroke-width="1" width="20" x="300" y="100"/>
<rect fill="ghostwhite" height="20" stroke="black" stroke-width="1" width="20" x="320" y="100"/>
<rect fill="ghostwhite" height="20" stroke="black" stroke-width="1" width="20" x="340" y="100"/>
<rect fill="ghostwhite" height="20" stroke="black" stroke-width="1" width="20" x="360" y="100"/>
<rect fill="dimgray" height="20" stroke="black" stroke-width="1" width="20" x="380" y="100"/>
<rect fill="ghostwhite" height="20" stroke="black" stroke-width="1" width="20" x="400" y="100"/>
<rect fill="dimgray" height="20" stroke="black" stroke-width="1" width="20" x="420" y="100"/>
<rect fill="dimgray" height="20" stroke="black" stroke-width="1" width="20" x="440" y="100"/>
<rect fill="dimgray" height="20" stroke="black" stroke-width="1" width="20" x="460" y="100"/>
<rect fill="dimgray" height="20" stroke="black" stroke-width="1" width="20" x="480" y="100"/>
</svg>